<?xml version="1.0" encoding="UTF-8" standalone="no"?>
<!DOCTYPE svg PUBLIC "-//W3C//DTD SVG 1.1//EN" "http://www.w3.org/Graphics/SVG/1.1/DTD/svg11.dtd">
<svg width="100%" height="100%" viewBox="0 0 886 886" version="1.1" xmlns="http://www.w3.org/2000/svg" xmlns:xlink="http://www.w3.org/1999/xlink" xml:space="preserve" xmlns:serif="http://www.serif.com/" style="fill-rule:evenodd;clip-rule:evenodd;stroke-miterlimit:10;">
    <g id="Background-Image" serif:id="Background Image" transform="matrix(4.16667,0,0,4.16667,-3,-22)">
        <g transform="matrix(0.0622838,0.998058,0.998058,-0.0622838,166.986,69.7521)">
            <path d="M-54.351,-57.848L61.571,-57.848" style="fill:none;fill-rule:nonzero;stroke:rgb(3,4,5);stroke-width:4px;"/>
        </g>
        <g transform="matrix(0.938398,0.345557,0.345557,-0.938398,114.563,158.989)">
            <path d="M-1.473,-8.265L46.362,-8.265" style="fill:none;fill-rule:nonzero;stroke:rgb(3,4,5);stroke-width:4px;"/>
        </g>
        <g transform="matrix(0.938399,0.345554,0.345554,-0.938399,75.3675,146.301)">
            <path d="M-1.181,-6.627L37.174,-6.627" style="fill:none;fill-rule:nonzero;stroke:rgb(3,4,5);stroke-width:4px;"/>
        </g>
        <g transform="matrix(0.976581,0.215151,0.215151,-0.976581,100.681,59.7234)">
            <path d="M-0.187,-1.716L15.765,-1.716" style="fill:none;fill-rule:nonzero;stroke:rgb(254,254,253);stroke-width:7px;"/>
        </g>
        <g transform="matrix(0.11221,0.993685,0.993685,-0.11221,118.103,162.993)">
            <path d="M-7.999,-8.953L10.021,-8.953" style="fill:none;fill-rule:nonzero;stroke:white;stroke-width:7px;"/>
        </g>
        <g transform="matrix(0.976581,0.215151,0.215151,-0.976581,99.4986,31.7234)">
            <path d="M-0.187,-1.716L15.765,-1.716" style="fill:none;fill-rule:nonzero;stroke:rgb(254,254,253);stroke-width:7px;"/>
        </g>
        <g transform="matrix(1,0,0,1,195.091,26.2987)">
            <path d="M0,138.145L-12.41,24.25L-132.468,0L-123.122,125.813" style="fill:none;fill-rule:nonzero;stroke:rgb(3,4,5);stroke-width:4px;"/>
        </g>
        <g transform="matrix(0.940468,0.339881,0.339881,-0.940468,120.562,121.752)">
            <path d="M-2.596,-14.819L84.603,-14.819" style="fill:none;fill-rule:nonzero;stroke:rgb(3,4,5);stroke-width:4px;"/>
        </g>
        <g transform="matrix(0.976581,0.215151,0.215151,-0.976581,59.3067,76.7234)">
            <path d="M-0.187,-1.716L15.765,-1.716" style="fill:none;fill-rule:nonzero;stroke:rgb(254,254,253);stroke-width:7px;"/>
        </g>
        <g transform="matrix(0.976581,0.215151,0.215151,-0.976581,56.9425,49.7234)">
            <path d="M-0.187,-1.716L15.765,-1.716" style="fill:none;fill-rule:nonzero;stroke:rgb(254,254,253);stroke-width:7px;"/>
        </g>
        <g transform="matrix(0.11221,0.993685,0.993685,-0.11221,159.477,144.993)">
            <path d="M-7.999,-8.953L10.021,-8.953" style="fill:none;fill-rule:nonzero;stroke:white;stroke-width:6px;"/>
        </g>
        <g transform="matrix(0.11221,0.993685,0.993685,-0.11221,160.659,146.993)">
            <path d="M-7.999,-8.953L10.021,-8.953" style="fill:none;fill-rule:nonzero;stroke:white;stroke-width:6px;"/>
        </g>
        <g transform="matrix(1,0,0,1,34.5323,172.935)">
            <path d="M0,-99.22L65.922,-86.428L79.059,29.885L-3.786,-0.769L-12.733,-129.105L107.679,-102.574L120.681,9.831" style="fill:none;fill-rule:nonzero;stroke:rgb(3,4,5);stroke-width:4px;"/>
        </g>
        <g transform="matrix(1,0,0,1,153.822,182.765)">
            <path d="M0,-12.319L1.391,0L-10.678,-4.466" style="fill:none;fill-rule:nonzero;stroke:rgb(3,4,5);stroke-width:4px;"/>
        </g>
        <g transform="matrix(1,0,0,1,193.699,164.551)">
            <path d="M0,-12.319L1.391,0L-10.678,-4.466" style="fill:none;fill-rule:nonzero;stroke:rgb(3,4,5);stroke-width:4px;"/>
        </g>
        <g transform="matrix(1,0,0,1,82.2234,137.538)">
            <path d="M0,18.338L-10.318,14.52L-11.33,0" style="fill:none;fill-rule:nonzero;stroke:rgb(3,4,5);stroke-width:4px;"/>
        </g>
        <g transform="matrix(1,0,0,1,123.473,120.248)">
            <path d="M0,18.338L-10.318,14.52L-11.33,0" style="fill:none;fill-rule:nonzero;stroke:rgb(3,4,5);stroke-width:4px;"/>
        </g>
    </g>
</svg>
