<?xml version="1.0" encoding="UTF-8" standalone="no"?><!DOCTYPE svg PUBLIC "-//W3C//DTD SVG 1.1//EN" "http://www.w3.org/Graphics/SVG/1.1/DTD/svg11.dtd"><svg width="100%" height="100%" viewBox="0 0 270 116" version="1.1" xmlns="http://www.w3.org/2000/svg" xmlns:xlink="http://www.w3.org/1999/xlink" xml:space="preserve" xmlns:serif="http://www.serif.com/" style="fill-rule:evenodd;clip-rule:evenodd;stroke-linejoin:round;stroke-miterlimit:2;"><rect id="Artboard1" x="0" y="0" width="269.187" height="115.877" style="fill:none;"/><g id="SPIRO"><path d="M46.833,106.87c0,2.393 -0.745,4.346 -2.234,5.859c-1.489,1.514 -3.43,2.271 -5.823,2.271l-28.857,0c-2.393,0 -4.358,-0.757 -5.896,-2.271c-1.538,-1.513 -2.307,-3.466 -2.307,-5.859l0,-29.077l10.18,0l0,28.198l24.756,0l0,-27.319l-31.64,-38.233c-2.198,-2.636 -3.296,-5.542 -3.296,-8.715l0,-23.218c0,-2.393 0.769,-4.346 2.307,-5.86c1.538,-1.513 3.503,-2.27 5.896,-2.27l28.857,0c2.393,0 4.334,0.757 5.823,2.27c1.489,1.514 2.234,3.467 2.234,5.86l0,26.66l-10.181,0l0,-25.781l-24.756,0l0,24.17l31.788,38.232c2.099,2.539 3.149,5.396 3.149,8.569l0,26.514Z" style="fill-rule:nonzero;"/><path d="M110.261,61.313c0,2.393 -0.769,4.358 -2.307,5.896c-1.538,1.539 -3.504,2.308 -5.896,2.308l-27.027,0l0,45.483l-10.18,0l0,-114.624l37.207,0c2.392,0 4.358,0.757 5.896,2.27c1.538,1.514 2.307,3.467 2.307,5.86l0,52.807Zm-10.181,-0.878l0,-51.05l-25.049,0l0,51.05l25.049,0Z" style="fill-rule:nonzero;"/><rect x="126.96" y="0.376" width="10.181" height="114.624" style="fill-rule:nonzero;"/><path d="M205.036,115l-10.693,0l-21.314,-61.377l1.392,-2.051l18.164,0l0,-42.187l-26.147,0l0,105.615l-10.181,0l0,-114.624l38.379,0c2.392,0 4.345,0.757 5.859,2.27c1.514,1.514 2.271,3.467 2.271,5.86l0,43.506c0,5.517 -3.711,8.276 -11.133,8.276c-0.733,0 -1.807,-0.037 -3.223,-0.11c-1.416,-0.073 -2.441,-0.11 -3.076,-0.11c6.592,18.262 13.159,36.573 19.702,54.932Z" style="fill-rule:nonzero;"/><path d="M268.684,106.87c0,2.393 -0.769,4.346 -2.308,5.859c-1.538,1.514 -3.503,2.271 -5.896,2.271l-32.08,0c-2.392,0 -4.345,-0.757 -5.859,-2.271c-1.514,-1.513 -2.27,-3.466 -2.27,-5.859l0,-98.364c0,-2.393 0.756,-4.346 2.27,-5.86c1.514,-1.513 3.467,-2.27 5.859,-2.27l32.08,0c2.393,0 4.358,0.757 5.896,2.27c1.539,1.514 2.308,3.467 2.308,5.86l0,98.364Zm-10.181,-0.879l0,-96.606l-28.052,0l0,96.606l28.052,0Z" style="fill-rule:nonzero;"/></g></svg>