<?xml version="1.0" encoding="utf-8"?>
<!-- Generator: Adobe Illustrator 19.1.0, SVG Export Plug-In . SVG Version: 6.00 Build 0)  -->
<svg version="1.1" id="Spiral" xmlns="http://www.w3.org/2000/svg" xmlns:xlink="http://www.w3.org/1999/xlink" x="0px" y="0px"
	 viewBox="0 0 553 212.3" style="enable-background:new 0 0 553 212.3;" xml:space="preserve">
<style type="text/css">
	.st0{fill:#6FBE44;}
	.st1{fill:#070808;}
	.st2{fill:#050606;}
	.st3{fill:#020202;}
	.st4{fill:#81C341;}
</style>
<g id="SPIRO">
	<g>
		<path d="M288.6,163.4c0,2.5-0.8,4.5-2.3,6.1c-1.5,1.6-3.5,2.3-6,2.3h-29.8c-2.5,0-4.5-0.8-6.1-2.3c-1.6-1.6-2.4-3.6-2.4-6.1v-30
			h10.5v29.1h25.6v-28.2l-32.7-39.5c-2.3-2.7-3.4-5.7-3.4-9v-24c0-2.5,0.8-4.5,2.4-6.1c1.6-1.6,3.6-2.3,6.1-2.3h29.8
			c2.5,0,4.5,0.8,6,2.3c1.5,1.6,2.3,3.6,2.3,6.1v27.5h-10.5V62.7h-25.6v25l32.8,39.5c2.2,2.6,3.3,5.6,3.3,8.9V163.4z"/>
		<path d="M354.2,116.3c0,2.5-0.8,4.5-2.4,6.1c-1.6,1.6-3.6,2.4-6.1,2.4h-27.9v47h-10.5V53.4h38.4c2.5,0,4.5,0.8,6.1,2.3
			c1.6,1.6,2.4,3.6,2.4,6.1V116.3z M343.6,115.4V62.7h-25.9v52.8H343.6z"/>
		<path d="M381.9,171.8h-10.5V53.4h10.5V171.8z"/>
		<path d="M452.1,171.8h-11l-22-63.4l1.4-2.1h18.8V62.7h-27v109.1h-10.5V53.4h39.7c2.5,0,4.5,0.8,6.1,2.3c1.6,1.6,2.3,3.6,2.3,6.1
			v45c0,5.7-3.8,8.6-11.5,8.6c-0.8,0-1.9,0-3.3-0.1c-1.5-0.1-2.5-0.1-3.2-0.1C438.6,133.9,445.3,152.8,452.1,171.8z"/>
		<path d="M517.9,163.4c0,2.5-0.8,4.5-2.4,6.1c-1.6,1.6-3.6,2.3-6.1,2.3h-33.1c-2.5,0-4.5-0.8-6.1-2.3c-1.6-1.6-2.3-3.6-2.3-6.1
			V61.8c0-2.5,0.8-4.5,2.3-6.1c1.6-1.6,3.6-2.3,6.1-2.3h33.1c2.5,0,4.5,0.8,6.1,2.3c1.6,1.6,2.4,3.6,2.4,6.1V163.4z M507.4,162.5
			V62.7h-29v99.8H507.4z"/>
	</g>
	<g>
		<path class="st0" d="M281.6,162.4c0,2.5-0.8,4.5-2.3,6.1c-1.5,1.6-3.5,2.3-6,2.3h-29.8c-2.5,0-4.5-0.8-6.1-2.3
			c-1.6-1.6-2.4-3.6-2.4-6.1v-30h10.5v29.1h25.6v-28.2l-32.7-39.5c-2.3-2.7-3.4-5.7-3.4-9v-24c0-2.5,0.8-4.5,2.4-6.1
			c1.6-1.6,3.6-2.3,6.1-2.3h29.8c2.5,0,4.5,0.8,6,2.3c1.5,1.6,2.3,3.6,2.3,6.1v27.5h-10.5V61.7h-25.6v25l32.8,39.5
			c2.2,2.6,3.3,5.6,3.3,8.9V162.4z"/>
		<path class="st0" d="M347.2,115.3c0,2.5-0.8,4.5-2.4,6.1c-1.6,1.6-3.6,2.4-6.1,2.4h-27.9v47h-10.5V52.4h38.4
			c2.5,0,4.5,0.8,6.1,2.3c1.6,1.6,2.4,3.6,2.4,6.1V115.3z M336.6,114.4V61.7h-25.9v52.8H336.6z"/>
		<path class="st0" d="M374.9,170.8h-10.5V52.4h10.5V170.8z"/>
		<path class="st0" d="M445.1,170.8h-11l-22-63.4l1.4-2.1h18.8V61.7h-27v109.1h-10.5V52.4h39.7c2.5,0,4.5,0.8,6.1,2.3
			c1.6,1.6,2.3,3.6,2.3,6.1v45c0,5.7-3.8,8.6-11.5,8.6c-0.8,0-1.9,0-3.3-0.1c-1.5-0.1-2.5-0.1-3.2-0.1
			C431.6,132.9,438.3,151.8,445.1,170.8z"/>
		<path class="st0" d="M510.9,162.4c0,2.5-0.8,4.5-2.4,6.1c-1.6,1.6-3.6,2.3-6.1,2.3h-33.1c-2.5,0-4.5-0.8-6.1-2.3
			c-1.6-1.6-2.3-3.6-2.3-6.1V60.8c0-2.5,0.8-4.5,2.3-6.1c1.6-1.6,3.6-2.3,6.1-2.3h33.1c2.5,0,4.5,0.8,6.1,2.3
			c1.6,1.6,2.4,3.6,2.4,6.1V162.4z M500.4,161.5V61.7h-29v99.8H500.4z"/>
	</g>
</g>
<g id="spiral_black">
	<polygon class="st1" points="116.4,160.1 85.4,147.1 83.6,80.4 79.5,79.3 81.4,149.7 116.7,164.6 	"/>
	<polygon class="st2" points="159.2,144.9 127.3,131.7 126.3,65.5 122.3,64.4 123.4,134.3 159.4,149.4 	"/>
	<polygon class="st2" points="83.4,73 82.8,53.4 78.8,52.3 79.3,72 	"/>
	<polygon class="st2" points="126.2,58.2 125.8,37.3 121.8,36.2 122.2,57.1 	"/>
	<polygon class="st3" points="125.7,30 125.5,17.1 121.5,17.1 121.7,29 	"/>
	<polygon class="st3" points="200.7,50.5 77.9,19.7 78.6,45 82.7,46.1 82.1,24.9 196.9,53.7 203.6,163.4 166.3,147.9 166.6,152.4 
		208,169.7 	"/>
	<polygon class="st3" points="50.1,66.3 49.1,70.2 113.1,85.8 120.4,197.9 43.3,165.1 40.5,40.5 155.5,71.6 162.9,179.8 
		123.6,163.2 123.9,167.7 167.4,186 159.3,68.5 36.3,35.3 39.3,167.8 124.8,204.1 116.9,82.6 	"/>
</g>
<g id="spiral_black_1_">
	<polygon class="st4" points="114.9,159.4 83.9,146.3 82,79.6 78,78.5 79.9,148.9 115.2,163.8 	"/>
	<polygon class="st4" points="157.6,144.2 125.8,130.9 124.7,64.7 120.7,63.7 121.9,133.5 157.9,148.6 	"/>
	<polygon class="st4" points="81.9,72.3 81.3,52.6 77.2,51.6 77.8,71.2 	"/>
	<polygon class="st4" points="124.6,57.5 124.3,36.5 120.3,35.5 120.6,56.4 	"/>
	<polygon class="st4" points="124.2,29.3 124,16.3 120,16.4 120.2,28.2 	"/>
	<polygon class="st4" points="199.1,49.8 76.4,18.9 77.1,44.3 81.1,45.3 80.5,24.1 195.3,52.9 202.1,162.6 164.8,147.1 165.1,151.6 
		206.5,168.9 	"/>
	<polygon class="st4" points="48.5,65.6 47.6,69.4 111.5,85 118.9,197.1 41.7,164.4 38.9,39.7 154,70.8 161.4,179.1 122.1,162.4 
		122.4,166.9 165.8,185.3 157.8,67.7 34.8,34.5 37.8,167 123.3,203.3 115.3,81.8 	"/>
</g>
</svg>
